<svg width="501" height="501" viewBox="0 0 501 501" fill="none" xmlns="http://www.w3.org/2000/svg">
<path d="M250.071 0.565186C111.856 0.565186 0.17395 112.453 0.17395 250.462C0.17395 356.386 65.9905 446.884 158.956 483.288C156.694 463.543 154.843 433.103 159.779 411.507C164.304 391.968 188.985 287.278 188.985 287.278C188.985 287.278 181.581 272.264 181.581 250.257C181.581 215.497 201.737 189.582 226.83 189.582C248.22 189.582 258.504 205.625 258.504 224.753C258.504 246.143 244.929 278.229 237.73 308.052C231.766 332.939 250.277 353.301 274.752 353.301C319.178 353.301 353.321 306.406 353.321 238.944C353.321 179.093 310.334 137.34 248.837 137.34C177.673 137.34 135.921 190.61 135.921 245.732C135.921 267.122 144.148 290.158 154.431 302.704C156.488 305.172 156.694 307.435 156.077 309.903C154.226 317.719 149.907 334.79 149.084 338.286C148.055 342.811 145.382 343.84 140.651 341.577C109.8 326.768 90.466 281.108 90.466 244.498C90.466 165.724 147.644 93.3254 255.624 93.3254C342.214 93.3254 409.676 155.028 409.676 237.71C409.676 323.889 355.378 393.202 280.1 393.202C254.802 393.202 230.943 380.039 222.922 364.407C222.922 364.407 210.375 412.124 207.29 423.848C201.737 445.65 186.517 472.799 176.233 489.459C199.68 496.657 224.362 500.565 250.277 500.565C388.286 500.565 500.174 388.677 500.174 250.668C499.968 112.453 388.08 0.565186 250.071 0.565186Z" fill="#00261A"/>
</svg>
